<svg width="118" height="101" viewBox="0 0 118 101" fill="none" xmlns="http://www.w3.org/2000/svg">
<circle cx="67.4412" cy="50.037" r="50.037" fill="#171717"/>
<path fill-rule="evenodd" clip-rule="evenodd" d="M57.7222 27.0653C60.2496 23.315 62.4508 20.0946 64.326 17.4042H36.8101C34.1197 21.7252 31.5108 26.1685 28.9834 30.7341C26.5375 35.2997 24.5401 40.0283 22.991 44.92V17.4042H0V100.074H22.991V78.1837C24.9477 82.3416 27.3936 85.8066 30.3286 88.5785C33.2636 91.3505 36.5248 93.5925 40.112 95.3046C43.6993 97.0167 47.5311 98.2397 51.6075 98.9734C55.7655 99.7072 60.005 100.074 64.326 100.074V77.083C61.8801 77.083 59.3527 76.92 56.7438 76.5939C54.2165 76.2677 51.8929 75.5748 49.7732 74.5149C47.7349 73.455 46.0228 72.0283 44.6369 70.2346C43.3324 68.3595 42.6802 65.8729 42.6802 62.7748C42.6802 59.3506 43.4547 55.5595 45.0037 51.4016C46.5528 47.2436 48.4279 43.0857 50.6292 38.9277C52.912 34.7698 55.2763 30.8156 57.7222 27.0653ZM82.7322 57.9626C81.2659 60.7159 77.8453 61.7592 75.092 60.2929C72.3387 58.8267 71.2954 55.4061 72.7616 52.6528L78.0715 42.6822C79.5378 39.9289 82.9584 38.8856 85.7117 40.3519C88.4649 41.8182 89.5083 45.2388 88.042 47.9921L82.7322 57.9626ZM78.8225 78.3202C82.7416 80.4073 87.6106 78.9222 89.6977 75.0032L106.069 44.2615C108.156 40.3424 106.671 35.4735 102.752 33.3864L81.9811 22.3246C78.062 20.2375 73.1931 21.7226 71.1059 25.6417L54.7344 56.3833C52.6472 60.3024 54.1323 65.1714 58.0514 67.2585L78.8225 78.3202Z" fill="#FBFBFB"/>
</svg>
